<?xml version="1.0" standalone="no"?>
<!DOCTYPE svg PUBLIC "-//W3C//DTD SVG 20010904//EN"
 "http://www.w3.org/TR/2001/REC-SVG-20010904/DTD/svg10.dtd">
<svg version="1.0" xmlns="http://www.w3.org/2000/svg"
 width="545.000000pt" height="545.000000pt" viewBox="0 0 545.000000 545.000000"
 preserveAspectRatio="xMidYMid meet">
<metadata>
Created by potrace 1.14, written by Peter Selinger 2001-2017
</metadata>
<g transform="translate(0.000000,545.000000) scale(0.100000,-0.100000)"
fill="#000000" stroke="none">
<path d="M1970 5420 c-353 -65 -635 -216 -906 -485 -308 -307 -535 -708 -703
-1241 -74 -238 -143 -547 -176 -798 -17 -128 -20 -433 -5 -556 114 -918 793
-1676 1868 -2084 228 -87 556 -173 842 -222 146 -25 515 -30 661 -10 377 53
690 202 952 455 386 373 620 893 738 1646 30 187 37 555 15 725 -64 485 -264
948 -582 1349 -107 133 -376 398 -514 505 -449 348 -1004 603 -1539 708 -157
31 -505 35 -651 8z m1970 -1426 c366 -118 667 -217 669 -220 7 -7 -120 -1657
-128 -1666 -5 -6 -206 63 -1054 363 -137 48 -250 89 -251 91 -2 1 5 154 15
338 9 184 20 398 23 475 19 467 41 835 51 835 5 0 309 -97 675 -216z"/>
</g>
</svg>
