<?xml version="1.0" encoding="UTF-8" standalone="no"?>
<!DOCTYPE svg PUBLIC "-//W3C//DTD SVG 1.1//EN" "http://www.w3.org/Graphics/SVG/1.1/DTD/svg11.dtd">
<svg width="100%" height="100%" viewBox="0 0 2601 988" version="1.1" xmlns="http://www.w3.org/2000/svg" xmlns:xlink="http://www.w3.org/1999/xlink" xml:space="preserve" xmlns:serif="http://www.serif.com/" style="fill-rule:evenodd;clip-rule:evenodd;stroke-linecap:round;stroke-linejoin:round;stroke-miterlimit:1.5;">
    <g transform="matrix(1.1935,0,0,1.1935,-244.171,-98.1194)">
        <g transform="matrix(0.851873,0,0,0.851873,29.9028,62.0982)">
            <g transform="matrix(1.12399,0,0,1.12399,30.5339,-85.9024)">
                <path d="M632.607,584.181C674.792,557.982 688.856,237.666 663.46,185.628C638.064,133.589 418.769,76.278 378.081,105.218C337.393,134.157 317.442,457.226 348.52,498.767C379.598,540.307 589.667,610.849 632.607,584.181Z" style="fill:rgb(160,0,0);"/>
            </g>
            <g transform="matrix(1.12399,0,0,1.12399,-64.9755,-44.6724)">
                <path d="M500.23,111.86C457.674,132.722 447.595,415.855 478.856,441.049C493.24,452.641 520.129,452.987 569.69,467.918C627.842,485.436 666.918,504.124 682.956,495.413C712.663,479.277 727.656,196.71 698.091,165.576C668.527,134.441 537.116,93.777 500.23,111.86Z" style="fill:rgb(255,226,226);"/>
                <clipPath id="_clip1">
                    <path d="M500.23,111.86C457.674,132.722 447.595,415.855 478.856,441.049C493.24,452.641 520.129,452.987 569.69,467.918C627.842,485.436 666.918,504.124 682.956,495.413C712.663,479.277 727.656,196.71 698.091,165.576C668.527,134.441 537.116,93.777 500.23,111.86Z"/>
                </clipPath>
                <g clip-path="url(#_clip1)">
                    <g transform="matrix(0.889686,0,0,0.889686,57.8078,39.7444)">
                        <path d="M432.451,205.358C432.451,205.358 492.557,164.435 596.979,189.694C701.401,214.954 763.936,281.427 763.936,281.427L765.572,120.533L471.277,42.353L432.451,205.358Z" style="fill:rgb(245,113,113);stroke:rgb(205,82,82);stroke-width:8.2px;"/>
                    </g>
                    <g transform="matrix(0.889686,0,0,0.889686,57.8078,39.7444)">
                        <path d="M419.811,313.307C419.811,313.307 473.146,372.485 577.97,394.402C682.793,416.319 761.191,397.358 761.191,397.358L730.237,541.844L434.693,469.536L419.811,313.307Z" style="fill:rgb(245,113,113);stroke:rgb(205,82,82);stroke-width:8.2px;"/>
                    </g>
                    <g transform="matrix(1.4051,0,0,1.4051,-234.979,-119.707)">
                        <path d="M582.649,251.386C608.958,258.967 625.432,280.282 622.727,303.47C620.022,326.657 607.752,345.037 581.6,340.451C555.448,335.864 533.574,317.685 537.568,291.479C541.562,265.273 556.34,243.806 582.649,251.386Z" style="fill:rgb(69,100,201);"/>
                    </g>
                    <g transform="matrix(1.2501,0,0,1.2501,-156.052,-66.1308)">
                        <path d="M588.338,273.182C603.398,276.159 608.29,283.531 607.089,293.958C605.889,304.385 601.568,310.57 587.193,308.408C572.818,306.247 566.599,302.533 568.25,291.033C569.902,279.533 573.278,270.206 588.338,273.182Z" style="fill:rgb(42,42,42);"/>
                    </g>
                </g>
            </g>
            <g transform="matrix(1.45594,0,0,1.76461,-284.99,-188.863)">
                <path d="M608.738,247.666L607.188,272.403L630.965,279.241L633.327,254.236L608.738,247.666Z" style="fill:white;fill-opacity:0.68;"/>
            </g>
            <g transform="matrix(1.5973,0,0,1.5973,-302.807,-331.395)">
                <path d="M444.814,519.061C462.999,508.462 497.855,530.32 544.387,543.5C589.151,556.178 639.262,558.136 642.11,578.135C647.919,618.922 558.837,793.833 532.812,822.207C506.786,850.581 322.033,800.587 318.065,764.729C314.097,728.871 414.398,536.789 444.814,519.061Z" style="fill:rgb(224,0,23);"/>
                <clipPath id="_clip2">
                    <path d="M444.814,519.061C462.999,508.462 497.855,530.32 544.387,543.5C589.151,556.178 639.262,558.136 642.11,578.135C647.919,618.922 558.837,793.833 532.812,822.207C506.786,850.581 322.033,800.587 318.065,764.729C314.097,728.871 414.398,536.789 444.814,519.061Z"/>
                </clipPath>
                <g clip-path="url(#_clip2)">
                    <g transform="matrix(0.703681,0,0,0.703681,148.896,179.504)">
                        <g transform="matrix(1,0,0,1,-11.1748,-4.93004)">
                            <path d="M448.662,510.25C461.833,504.083 501.671,517.379 503.787,527.034C505.903,536.69 496.579,552.787 486.656,559.551C476.734,566.314 433.044,552.209 429.769,544.899C426.495,537.588 435.492,516.418 448.662,510.25Z" style="fill:rgb(118,0,0);"/>
                        </g>
                        <g transform="matrix(1,0,0,1,156.276,43.219)">
                            <path d="M448.662,510.25C461.833,504.083 501.671,517.379 503.787,527.034C505.903,536.69 496.579,552.787 486.656,559.551C476.734,566.314 433.044,552.209 429.769,544.899C426.495,537.588 435.492,516.418 448.662,510.25Z" style="fill:rgb(118,0,0);"/>
                        </g>
                        <g transform="matrix(1,0,0,1,72.1218,18.6671)">
                            <path d="M448.662,510.25C461.833,504.083 501.671,517.379 503.787,527.034C505.903,536.69 496.579,552.787 486.656,559.551C476.734,566.314 433.044,552.209 429.769,544.899C426.495,537.588 435.492,516.418 448.662,510.25Z" style="fill:rgb(118,0,0);"/>
                        </g>
                        <g transform="matrix(1,0,0,1,-41.3454,55.6139)">
                            <path d="M448.662,510.25C461.833,504.083 501.671,517.379 503.787,527.034C505.903,536.69 496.579,552.787 486.656,559.551C476.734,566.314 433.044,552.209 429.769,544.899C426.495,537.588 435.492,516.418 448.662,510.25Z" style="fill:rgb(118,0,0);"/>
                        </g>
                        <g transform="matrix(1,0,0,1,126.106,103.763)">
                            <path d="M448.662,510.25C461.833,504.083 501.671,517.379 503.787,527.034C505.903,536.69 496.579,552.787 486.656,559.551C476.734,566.314 433.044,552.209 429.769,544.899C426.495,537.588 435.492,516.418 448.662,510.25Z" style="fill:rgb(118,0,0);"/>
                        </g>
                        <g transform="matrix(1,0,0,1,41.9512,79.2111)">
                            <path d="M448.662,510.25C461.833,504.083 501.671,517.379 503.787,527.034C505.903,536.69 496.579,552.787 486.656,559.551C476.734,566.314 433.044,552.209 429.769,544.899C426.495,537.588 435.492,516.418 448.662,510.25Z" style="fill:rgb(118,0,0);"/>
                        </g>
                        <g transform="matrix(1,0,0,1,-73.8099,121.774)">
                            <path d="M448.662,510.25C461.833,504.083 501.671,517.379 503.787,527.034C505.903,536.69 496.579,552.787 486.656,559.551C476.734,566.314 433.044,552.209 429.769,544.899C426.495,537.588 435.492,516.418 448.662,510.25Z" style="fill:rgb(118,0,0);"/>
                        </g>
                        <g transform="matrix(1,0,0,1,93.6413,169.923)">
                            <path d="M448.662,510.25C461.833,504.083 501.671,517.379 503.787,527.034C505.903,536.69 496.579,552.787 486.656,559.551C476.734,566.314 433.044,552.209 429.769,544.899C426.495,537.588 435.492,516.418 448.662,510.25Z" style="fill:rgb(118,0,0);"/>
                        </g>
                        <g transform="matrix(1,0,0,1,9.48663,145.371)">
                            <path d="M448.662,510.25C461.833,504.083 501.671,517.379 503.787,527.034C505.903,536.69 496.579,552.787 486.656,559.551C476.734,566.314 433.044,552.209 429.769,544.899C426.495,537.588 435.492,516.418 448.662,510.25Z" style="fill:rgb(118,0,0);"/>
                        </g>
                        <g transform="matrix(1,0,0,1,-106.94,185.73)">
                            <path d="M448.662,510.25C461.833,504.083 501.671,517.379 503.787,527.034C505.903,536.69 496.579,552.787 486.656,559.551C476.734,566.314 433.044,552.209 429.769,544.899C426.495,537.588 435.492,516.418 448.662,510.25Z" style="fill:rgb(118,0,0);"/>
                        </g>
                        <g transform="matrix(1,0,0,1,60.5112,233.879)">
                            <path d="M448.662,510.25C461.833,504.083 501.671,517.379 503.787,527.034C505.903,536.69 496.579,552.787 486.656,559.551C476.734,566.314 433.044,552.209 429.769,544.899C426.495,537.588 435.492,516.418 448.662,510.25Z" style="fill:rgb(118,0,0);"/>
                        </g>
                        <g transform="matrix(1,0,0,1,-23.6435,209.327)">
                            <path d="M448.662,510.25C461.833,504.083 501.671,517.379 503.787,527.034C505.903,536.69 496.579,552.787 486.656,559.551C476.734,566.314 433.044,552.209 429.769,544.899C426.495,537.588 435.492,516.418 448.662,510.25Z" style="fill:rgb(118,0,0);"/>
                        </g>
                    </g>
                </g>
            </g>
        </g>
        <g transform="matrix(1,0,0,1,28.2315,8.18531)">
            <path d="M866.541,338.807C862.902,338.807 860.309,337.897 858.762,336.077C857.215,334.257 856.26,331.619 855.896,328.162L841.43,172.307C840.884,166.848 842.203,162.254 845.387,158.523C848.572,154.793 852.62,152.928 857.534,152.928C860.809,152.928 863.402,153.747 865.313,155.384C867.223,157.022 868.361,159.388 868.724,162.481L879.37,280.122L942.421,163.027C946.06,156.294 951.155,152.928 957.706,152.928C964.257,152.928 967.805,156.112 968.351,162.481L975.721,280.395L1045.05,159.479C1048.87,153.11 1053.97,149.925 1060.34,149.925C1063.43,149.925 1065.98,150.79 1067.98,152.518C1069.98,154.247 1070.98,156.476 1070.98,159.206C1070.98,162.845 1069.8,166.666 1067.43,170.67L975.994,330.072C974.538,332.802 972.582,334.94 970.125,336.487C967.669,338.033 964.985,338.807 962.073,338.807C955.159,338.807 951.428,335.531 950.882,328.98L943.513,213.796L881.553,329.526C879.552,333.166 877.368,335.622 875.002,336.896C872.637,338.17 869.816,338.807 866.541,338.807Z" style="fill:rgb(224,0,23);stroke:rgb(224,0,23);stroke-width:1.68px;stroke-linecap:butt;stroke-miterlimit:2;"/>
            <g transform="matrix(1,0,0,1,-10.3104,9.5184)">
                <path d="M1066.61,339.08C1063.16,339.08 1060.38,337.76 1058.29,335.122C1056.19,332.483 1055.51,329.435 1056.24,325.978L1089.81,168.759C1090.72,165.12 1092.73,161.981 1095.82,159.342C1098.91,156.704 1102.19,155.384 1105.64,155.384C1108.92,155.384 1111.51,156.431 1113.42,158.523C1115.34,160.616 1116.29,163.118 1116.29,166.029C1116.29,167.303 1116.2,168.213 1116.02,168.759L1102.91,230.173C1109.65,222.166 1117.56,215.479 1126.66,210.111C1135.76,204.743 1144.31,202.059 1152.32,202.059C1161.6,202.059 1168.42,205.107 1172.79,211.203C1177.16,217.298 1179.34,226.624 1179.34,239.18C1179.34,249.006 1177.7,263.063 1174.43,281.351C1171.15,299.638 1167.69,314.787 1164.06,326.797C1162.96,330.254 1161.01,333.12 1158.19,335.395C1155.37,337.669 1152.23,338.807 1148.77,338.807C1145.31,338.807 1142.67,337.851 1140.86,335.941C1139.04,334.03 1138.13,331.71 1138.13,328.98C1138.13,327.707 1138.22,326.797 1138.4,326.251L1141.67,311.512C1145.5,294.953 1148.32,281.76 1150.14,271.934C1151.95,262.108 1152.87,253.009 1152.87,244.639C1152.87,238.452 1152.23,234.13 1150.95,231.674C1149.68,229.217 1147.41,227.989 1144.13,227.989C1137.58,227.989 1130.26,231.628 1122.16,238.907C1114.06,246.186 1107.28,253.555 1101.82,261.016C1098.91,265.019 1096.73,268.84 1095.27,272.48C1093.82,276.119 1092.54,280.213 1091.45,284.763L1082.72,325.432C1081.81,329.617 1079.81,332.938 1076.71,335.395C1073.62,337.851 1070.25,339.08 1066.61,339.08Z" style="fill:rgb(224,0,23);stroke:rgb(224,0,23);stroke-width:1.68px;stroke-linecap:butt;stroke-miterlimit:2;"/>
            </g>
            <g transform="matrix(0.998397,-0.0566011,0.0566011,0.998397,-30.5362,70.4384)">
                <path d="M1243.76,191.141C1240.85,191.141 1238.39,190.185 1236.39,188.275C1234.39,186.364 1233.38,183.953 1233.38,181.042C1233.38,180.314 1233.57,179.222 1233.93,177.766L1236.39,167.667C1237.12,164.21 1239.12,161.207 1242.39,158.66C1245.67,156.112 1248.94,154.839 1252.22,154.839C1255.13,154.839 1257.59,155.885 1259.59,157.977C1261.59,160.07 1262.59,162.572 1262.59,165.484C1262.59,166.575 1262.5,167.394 1262.32,167.94L1259.59,178.312C1258.68,181.952 1256.72,184.999 1253.72,187.456C1250.72,189.913 1247.4,191.141 1243.76,191.141ZM1211.28,338.807C1208.18,338.807 1205.59,337.806 1203.5,335.804C1201.4,333.803 1200.36,331.255 1200.36,328.162C1200.36,327.07 1200.45,326.16 1200.63,325.432L1224.92,216.798C1225.65,213.159 1227.65,210.02 1230.93,207.381C1234.2,204.743 1237.66,203.424 1241.3,203.424C1244.58,203.424 1247.17,204.379 1249.08,206.29C1250.99,208.2 1251.95,210.702 1251.95,213.796C1251.95,215.069 1251.86,216.07 1251.67,216.798L1227.38,325.432C1226.65,329.071 1224.7,332.21 1221.51,334.849C1218.33,337.487 1214.92,338.807 1211.28,338.807Z" style="fill:rgb(224,0,23);stroke:rgb(224,0,23);stroke-width:1.68px;stroke-linecap:butt;stroke-miterlimit:2;"/>
            </g>
            <g transform="matrix(1,0,0,1,-18.215,0.339943)">
                <path d="M1305.44,338.807C1296.53,338.807 1288.61,337.032 1281.7,333.484C1274.78,329.936 1269.46,325.432 1265.73,319.973C1262,314.514 1260.13,309.055 1260.13,303.596C1260.13,299.593 1261.77,295.999 1265.05,292.815C1268.32,289.63 1271.96,288.038 1275.96,288.038C1279.06,288.038 1281.42,288.857 1283.06,290.495C1284.7,292.132 1285.7,294.316 1286.07,297.045C1286.61,302.686 1288.93,307.144 1293.03,310.42C1297.12,313.695 1302.71,315.333 1309.81,315.333C1317.09,315.333 1323.23,313.422 1328.24,309.601C1333.24,305.78 1335.74,301.503 1335.74,296.772C1335.74,292.951 1334.19,289.903 1331.1,287.629C1328.01,285.354 1322.28,282.852 1313.9,280.122C1301.9,276.119 1293.16,271.388 1287.7,265.929C1282.24,260.47 1279.51,253.646 1279.51,245.458C1279.51,237.269 1282.06,229.9 1287.16,223.349C1292.25,216.798 1298.98,211.703 1307.36,208.064C1315.73,204.424 1324.82,202.605 1334.65,202.605C1348.12,202.605 1358.26,205.016 1365.08,209.838C1371.91,214.66 1375.32,221.62 1375.32,230.719C1375.32,237.815 1373.59,243.502 1370.13,247.778C1366.68,252.054 1362.4,254.192 1357.3,254.192C1354.03,254.192 1351.44,253.282 1349.53,251.463C1347.62,249.643 1346.66,247.277 1346.66,244.366C1346.66,243.092 1347.2,241.455 1348.3,239.453C1349.39,237.451 1349.93,235.723 1349.93,234.267C1349.93,228.444 1343.57,225.532 1330.83,225.532C1322.46,225.532 1316.13,226.943 1311.86,229.763C1307.58,232.584 1305.44,236.087 1305.44,240.272C1305.44,243.911 1307.04,246.914 1310.22,249.279C1313.4,251.645 1319.73,254.465 1329.19,257.741C1341.02,261.744 1349.48,266.111 1354.58,270.842C1359.67,275.573 1362.22,282.124 1362.22,290.495C1362.22,298.865 1359.62,306.781 1354.44,314.241C1349.25,321.702 1342.29,327.661 1333.56,332.119C1324.82,336.578 1315.45,338.807 1305.44,338.807Z" style="fill:rgb(224,0,23);stroke:rgb(224,0,23);stroke-width:1.68px;stroke-linecap:butt;stroke-miterlimit:2;"/>
            </g>
            <g transform="matrix(0.995621,-0.0934803,0.0934803,0.995621,-41.294,141.139)">
                <path d="M1383.24,387.119C1379.6,387.119 1376.82,385.708 1374.91,382.888C1373,380.068 1372.32,377.111 1372.86,374.017L1406.43,215.706C1407.16,211.885 1409.12,208.701 1412.3,206.153C1415.49,203.606 1418.99,202.332 1422.81,202.332C1425.91,202.332 1428.41,203.287 1430.32,205.198C1432.23,207.108 1433,209.337 1432.64,211.885L1432.09,215.706C1438.1,211.703 1444.74,208.473 1452.02,206.017C1459.3,203.56 1466.85,202.332 1474.67,202.332C1486.14,202.332 1495.05,206.244 1501.42,214.069C1507.79,221.893 1510.98,232.811 1510.98,246.823C1510.98,256.103 1509.16,266.247 1505.52,277.256C1501.88,288.265 1497.24,297.864 1491.6,306.053C1484.86,315.515 1476.63,323.021 1466.89,328.571C1457.16,334.121 1445.83,336.896 1432.91,336.896C1424.54,336.896 1416.26,335.076 1408.07,331.437L1399.07,374.017C1398.34,377.656 1396.38,380.75 1393.2,383.297C1390.01,385.845 1386.69,387.119 1383.24,387.119ZM1440.28,310.42C1454.66,310.42 1466.03,303.869 1474.4,290.767C1477.49,285.672 1480.13,279.304 1482.32,271.661C1484.5,264.018 1485.59,257.104 1485.59,250.917C1485.59,243.092 1484.13,237.133 1481.22,233.039C1478.31,228.944 1474.22,226.897 1468.94,226.897C1459.66,226.897 1451.43,228.717 1444.24,232.356C1437.05,235.996 1431.18,240.09 1426.63,244.639L1414.08,304.415C1423.36,308.418 1432.09,310.42 1440.28,310.42Z" style="fill:rgb(224,0,23);stroke:rgb(224,0,23);stroke-width:1.68px;stroke-linecap:butt;stroke-miterlimit:2;"/>
            </g>
            <g transform="matrix(0.994487,0.104856,-0.104856,0.994487,12.0489,-157.507)">
                <path d="M1581.67,338.807C1564.93,338.807 1551.55,334.257 1541.55,325.159C1531.54,316.061 1526.53,303.505 1526.53,287.492C1526.53,273.481 1530.17,259.924 1537.45,246.823C1544.73,233.721 1554.37,223.076 1566.38,214.887C1578.39,206.699 1591.13,202.605 1604.6,202.605C1614.61,202.605 1622.93,204.47 1629.57,208.2C1636.21,211.93 1641.08,216.525 1644.17,221.984C1647.27,227.443 1648.82,232.72 1648.82,237.815C1648.82,241.637 1647.9,244.866 1646.09,247.505C1644.27,250.143 1641.44,252.464 1637.62,254.465L1555.47,296.499C1556.19,302.14 1559.47,306.508 1565.29,309.601C1571.12,312.694 1577.67,314.241 1584.94,314.241C1596.77,314.241 1607.24,310.329 1616.33,302.504C1619.97,299.593 1623.34,298.137 1626.43,298.137C1629.53,298.137 1632.03,299.001 1633.94,300.73C1635.85,302.459 1636.81,304.688 1636.81,307.417C1636.81,309.965 1636.35,312.149 1635.44,313.968C1634.53,315.788 1632.89,317.698 1630.53,319.7C1624.7,324.977 1617.15,329.481 1607.87,333.211C1598.59,336.941 1589.86,338.807 1581.67,338.807ZM1622.34,238.634C1621.07,234.631 1618.61,231.628 1614.97,229.627C1611.33,227.625 1606.78,226.624 1601.32,226.624C1589.68,226.624 1578.85,231.628 1568.84,241.637C1564.11,246.368 1560.33,251.736 1557.51,257.741C1554.69,263.745 1553.1,269.113 1552.74,273.845L1622.34,238.634Z" style="fill:rgb(224,0,23);stroke:rgb(224,0,23);stroke-width:1.68px;stroke-linecap:butt;stroke-miterlimit:2;"/>
            </g>
            <g transform="matrix(0.996515,-0.0834191,0.0834191,0.996515,-37.372,144.445)">
                <path d="M1749.53,202.059C1756.27,202.059 1761.54,203.697 1765.36,206.972C1769.19,210.247 1771.1,214.251 1771.1,218.982C1771.1,221.165 1770.78,224.077 1770.14,227.716C1769.5,231.355 1768.82,234.449 1768.09,236.996C1767.18,240.272 1765.32,243.092 1762.5,245.458C1759.68,247.823 1756.45,249.006 1752.81,249.006C1749.53,249.006 1746.99,248.187 1745.17,246.55C1743.35,244.912 1742.44,242.819 1742.44,240.272C1742.44,238.998 1742.76,237.36 1743.39,235.359C1744.03,233.357 1744.35,231.992 1744.35,231.264C1744.35,229.081 1742.98,227.989 1740.25,227.989C1736.43,227.989 1731.56,229.9 1725.65,233.721C1719.74,237.542 1714.69,241.637 1710.5,246.004C1704.5,252.009 1700.49,260.197 1698.49,270.569L1686.21,326.251C1685.48,329.526 1683.53,332.438 1680.34,334.985C1677.16,337.533 1673.93,338.807 1670.65,338.807C1667.19,338.807 1664.33,337.487 1662.05,334.849C1659.78,332.21 1659.01,329.344 1659.73,326.251L1683.21,215.706C1683.93,212.067 1685.94,208.974 1689.21,206.426C1692.49,203.878 1695.94,202.605 1699.58,202.605C1703.59,202.605 1706.45,203.787 1708.18,206.153C1709.91,208.519 1710.5,211.339 1709.96,214.614L1708.59,221.984C1714.23,215.615 1720.65,210.702 1727.83,207.245C1735.02,203.787 1742.26,202.059 1749.53,202.059Z" style="fill:rgb(224,0,23);stroke:rgb(224,0,23);stroke-width:1.68px;stroke-linecap:butt;stroke-miterlimit:2;"/>
            </g>
            <g transform="matrix(1,0,0,1,-10.9977,-6.52989)">
                <path d="M1812.86,191.141C1809.95,191.141 1807.49,190.185 1805.49,188.275C1803.49,186.364 1802.49,183.953 1802.49,181.042C1802.49,180.314 1802.67,179.222 1803.03,177.766L1805.49,167.667C1806.22,164.21 1808.22,161.207 1811.49,158.66C1814.77,156.112 1818.04,154.839 1821.32,154.839C1824.23,154.839 1826.69,155.885 1828.69,157.977C1830.69,160.07 1831.69,162.572 1831.69,165.484C1831.69,166.575 1831.6,167.394 1831.42,167.94L1828.69,178.312C1827.78,181.952 1825.82,184.999 1822.82,187.456C1819.82,189.913 1816.5,191.141 1812.86,191.141ZM1780.38,338.807C1777.28,338.807 1774.69,337.806 1772.6,335.804C1770.51,333.803 1769.46,331.255 1769.46,328.162C1769.46,327.07 1769.55,326.16 1769.73,325.432L1794.02,216.798C1794.75,213.159 1796.75,210.02 1800.03,207.381C1803.3,204.743 1806.76,203.424 1810.4,203.424C1813.68,203.424 1816.27,204.379 1818.18,206.29C1820.09,208.2 1821.05,210.702 1821.05,213.796C1821.05,215.069 1820.95,216.07 1820.77,216.798L1796.48,325.432C1795.75,329.071 1793.8,332.21 1790.61,334.849C1787.43,337.487 1784.02,338.807 1780.38,338.807Z" style="fill:rgb(224,0,23);stroke:rgb(224,0,23);stroke-width:1.68px;stroke-linecap:butt;stroke-miterlimit:2;"/>
            </g>
            <g transform="matrix(0.994955,0.100318,-0.100318,0.994955,16.4511,-175.992)">
                <path d="M1846.43,338.807C1842.97,338.807 1840.2,337.533 1838.11,334.985C1836.01,332.438 1835.33,329.526 1836.06,326.251L1859.53,215.433C1860.26,211.794 1862.26,208.701 1865.54,206.153C1868.81,203.606 1872.27,202.332 1875.91,202.332C1878.82,202.332 1881.23,203.287 1883.14,205.198C1885.05,207.108 1886.01,209.519 1886.01,212.431C1886.01,213.705 1885.92,214.705 1885.74,215.433L1881.37,236.178C1888.83,225.26 1897.06,216.935 1906.07,211.203C1915.08,205.471 1924.22,202.605 1933.5,202.605C1944.06,202.605 1951.83,205.198 1956.84,210.384C1961.84,215.57 1964.35,224.259 1964.35,236.45C1964.35,247.732 1962.53,261.562 1958.89,277.939L1948.51,325.705C1947.79,329.162 1945.97,332.21 1943.06,334.849C1940.14,337.487 1936.87,338.807 1933.23,338.807C1929.77,338.807 1927,337.487 1924.9,334.849C1922.81,332.21 1922.13,329.253 1922.86,325.978L1932.41,280.668C1935.87,264.473 1937.6,252.373 1937.6,244.366C1937.6,238.179 1936.6,233.903 1934.59,231.537C1932.59,229.172 1929.59,227.989 1925.59,227.989C1920.13,227.989 1914.17,230.309 1907.71,234.949C1901.25,239.589 1894.74,246.186 1888.19,254.738C1882.55,262.199 1878.14,269.477 1874.95,276.574C1871.77,283.671 1869.09,292.223 1866.9,302.231L1861.99,325.159C1861.26,329.162 1859.49,332.438 1856.67,334.985C1853.85,337.533 1850.43,338.807 1846.43,338.807Z" style="fill:rgb(224,0,23);stroke:rgb(224,0,23);stroke-width:1.68px;stroke-linecap:butt;stroke-miterlimit:2;"/>
            </g>
            <g transform="matrix(1,0,0,1,-20.9831,-7.22098)">
                <path d="M2016.21,384.662C2005.47,384.662 1995.01,383.388 1984.82,380.841C1982.45,380.295 1980.59,379.112 1979.22,377.293C1977.86,375.473 1977.17,373.289 1977.17,370.742C1977.17,366.738 1978.86,363.099 1982.22,359.824C1985.59,356.548 1989.27,354.911 1993.28,354.911C1995.83,354.911 1999.19,355.366 2003.38,356.275C2009.93,357.731 2015.93,358.459 2021.39,358.459C2031.04,358.459 2038.86,356.093 2044.87,351.362C2050.87,346.631 2055.33,339.262 2058.24,329.253L2059.88,323.794C2049.69,332.165 2039.22,336.35 2028.49,336.35C2015.57,336.35 2005.06,332.21 1996.96,323.931C1988.87,315.651 1984.82,304.233 1984.82,289.676C1984.82,275.3 1988.77,261.334 1996.69,247.778C2004.61,234.221 2014.89,223.258 2027.53,214.887C2040.18,206.517 2053.24,202.332 2066.7,202.332C2074.16,202.332 2081.35,204.242 2088.26,208.064C2089.54,205.516 2091.31,203.469 2093.59,201.922C2095.86,200.376 2098.27,199.602 2100.82,199.602C2104.82,199.602 2107.78,200.376 2109.69,201.922C2111.6,203.469 2112.56,205.789 2112.56,208.883C2112.56,211.066 2112.37,212.795 2112.01,214.069L2085.26,328.162C2080.89,346.722 2072.57,360.779 2060.29,370.332C2048,379.886 2033.31,384.662 2016.21,384.662ZM2032.04,310.693C2041.86,310.693 2050.46,306.917 2057.83,299.365C2065.2,291.814 2070.43,280.85 2073.53,266.475L2080.62,233.448C2078.44,231.992 2075.62,230.81 2072.16,229.9C2068.7,228.99 2065.34,228.535 2062.06,228.535C2053.69,228.535 2045.46,231.082 2037.36,236.178C2029.26,241.273 2022.71,248.096 2017.71,256.649C2012.7,265.201 2010.2,274.39 2010.2,284.217C2010.2,292.587 2012.11,299.092 2015.93,303.733C2019.75,308.373 2025.12,310.693 2032.04,310.693Z" style="fill:rgb(224,0,23);stroke:rgb(224,0,23);stroke-width:1.68px;stroke-linecap:butt;stroke-miterlimit:2;"/>
            </g>
        </g>
        <g transform="matrix(1,0,0,1,-10.5727,238.138)">
            <path d="M908.302,338.807C893.745,338.807 880.37,335.531 868.179,328.98C855.987,322.43 846.343,312.922 839.246,300.457C832.149,287.992 828.601,273.39 828.601,256.649C828.601,238.998 832.741,222.121 841.02,206.017C849.3,189.913 860.036,176.993 873.228,167.258C886.421,157.523 899.932,152.655 913.761,152.655C919.584,152.655 925.362,153.565 931.094,155.384C936.825,157.204 941.966,159.479 946.515,162.208C948.699,160.025 951.428,158.933 954.704,158.933C958.343,158.933 961.345,160.161 963.711,162.618C966.077,165.074 967.259,168.031 967.259,171.488L967.259,188.957C967.259,192.597 965.94,195.781 963.302,198.51C960.663,201.24 957.433,202.605 953.612,202.605C949.973,202.605 946.925,201.513 944.468,199.329C942.011,197.146 940.783,194.598 940.783,191.687L940.783,189.776C934.05,182.679 924.406,179.131 911.851,179.131C902.752,179.131 893.836,182.816 885.101,190.185C876.367,197.555 869.316,207.245 863.948,219.255C858.58,231.264 855.896,243.729 855.896,256.649C855.896,268.113 858.261,278.075 862.993,286.537C867.724,294.998 874.047,301.458 881.963,305.916C889.878,310.374 898.658,312.603 908.302,312.603C925.953,312.603 940.51,305.052 951.974,289.949C953.612,287.947 955.25,286.537 956.887,285.718C958.525,284.899 960.436,284.49 962.619,284.49C966.44,284.49 969.67,285.718 972.309,288.174C974.947,290.631 976.267,293.952 976.267,298.137C976.267,301.231 975.448,303.96 973.81,306.326C966.35,316.88 956.933,324.932 945.56,330.482C934.187,336.032 921.768,338.807 908.302,338.807Z" style="fill:rgb(160,0,0);fill-rule:nonzero;stroke:rgb(118,0,0);stroke-opacity:0;stroke-width:0.84px;stroke-linecap:butt;stroke-miterlimit:2;"/>
            <g transform="matrix(1,0,0,1,1.32128,-9.42938)">
                <path d="M1088.18,341.536C1084.54,341.536 1081.58,340.535 1079.31,338.534C1077.03,336.532 1075.89,333.894 1075.89,330.618L1075.89,326.797C1068.43,334.803 1058.06,338.807 1044.78,338.807C1034.77,338.807 1025.76,336.35 1017.75,331.437C1009.75,326.524 1003.47,319.564 998.922,310.556C994.372,301.549 992.098,291.313 992.098,279.849C992.098,267.112 994.827,254.784 1000.29,242.865C1005.75,230.946 1013.43,221.256 1023.35,213.796C1033.27,206.335 1044.69,202.605 1057.61,202.605C1065.98,202.605 1073.53,203.742 1080.26,206.017C1086.99,208.291 1094,211.066 1101.28,214.342L1101.28,327.889C1101.28,331.528 1100,334.712 1097.46,337.442C1094.91,340.171 1091.82,341.536 1088.18,341.536ZM1046.69,313.422C1051.96,313.422 1057.11,312.33 1062.11,310.147C1067.11,307.963 1071.25,305.325 1074.53,302.231L1075.35,230.991C1070.07,228.808 1064.34,227.716 1058.15,227.716C1050.33,227.716 1043.41,230.127 1037.41,234.949C1031.4,239.771 1026.76,246.14 1023.49,254.056C1020.21,261.971 1018.57,270.387 1018.57,279.304C1018.57,290.404 1021.03,298.865 1025.94,304.688C1030.86,310.511 1037.77,313.422 1046.69,313.422Z" style="fill:rgb(160,0,0);fill-rule:nonzero;stroke:rgb(118,0,0);stroke-opacity:0;stroke-width:0.84px;stroke-linecap:butt;stroke-miterlimit:2;"/>
            </g>
            <g transform="matrix(1,0,0,1,-7.17686,11.5356)">
                <path d="M1152.59,338.807C1149.13,338.807 1146.09,337.533 1143.45,334.985C1140.81,332.438 1139.49,329.435 1139.49,325.978L1139.49,215.706C1139.49,212.249 1140.81,209.201 1143.45,206.562C1146.09,203.924 1149.13,202.605 1152.59,202.605C1156.23,202.605 1159.33,203.924 1161.87,206.562C1164.42,209.201 1165.69,212.249 1165.69,215.706L1165.69,234.813C1176.98,213.341 1191.99,202.605 1210.73,202.605C1218.19,202.605 1224.7,204.788 1230.25,209.155C1235.8,213.523 1239.75,220.073 1242.12,228.808C1253.77,211.339 1267.96,202.605 1284.7,202.605C1295.98,202.605 1304.9,206.926 1311.45,215.57C1318,224.213 1321.28,237.178 1321.28,254.465L1321.28,325.978C1321.28,329.435 1319.96,332.438 1317.32,334.985C1314.68,337.533 1311.63,338.807 1308.17,338.807C1304.53,338.807 1301.44,337.533 1298.89,334.985C1296.35,332.438 1295.07,329.435 1295.07,325.978L1295.07,252.827C1295.07,244.457 1293.89,238.179 1291.52,233.994C1289.16,229.809 1285.43,227.716 1280.33,227.716C1275.06,227.716 1269.78,229.809 1264.5,233.994C1259.23,238.179 1254.9,243.911 1251.54,251.19C1248.17,258.468 1246.49,266.475 1246.49,275.209L1246.49,325.978C1246.49,329.617 1245.21,332.665 1242.67,335.122C1240.12,337.578 1237.03,338.807 1233.38,338.807C1229.93,338.807 1226.88,337.533 1224.24,334.985C1221.6,332.438 1220.28,329.435 1220.28,325.978L1220.28,252.827C1220.28,244.093 1219.24,237.724 1217.14,233.721C1215.05,229.718 1211.64,227.716 1206.91,227.716C1201.09,227.716 1195.35,230.036 1189.71,234.676C1184.07,239.316 1179.16,244.912 1174.97,251.463C1171.7,256.922 1169.29,262.381 1167.74,267.84C1166.19,273.299 1165.42,279.304 1165.42,285.854L1165.69,325.978C1165.69,329.435 1164.42,332.438 1161.87,334.985C1159.33,337.533 1156.23,338.807 1152.59,338.807Z" style="fill:rgb(160,0,0);fill-rule:nonzero;stroke:rgb(118,0,0);stroke-opacity:0;stroke-width:0.84px;stroke-linecap:butt;stroke-miterlimit:2;"/>
            </g>
            <g transform="matrix(0.993309,0.115486,-0.115486,0.993309,25.8696,-160.601)">
                <path d="M1415.72,338.807C1402.8,338.807 1391.2,336.032 1380.91,330.482C1370.63,324.932 1362.58,317.016 1356.76,306.735C1350.94,296.454 1348.02,284.308 1348.02,270.296C1348.02,258.832 1350.62,247.869 1355.8,237.406C1360.99,226.943 1368.27,218.527 1377.64,212.158C1387.01,205.789 1397.7,202.605 1409.71,202.605C1420.81,202.605 1430.32,204.834 1438.23,209.292C1446.15,213.75 1452.11,219.073 1456.11,225.26C1460.12,231.446 1462.12,236.996 1462.12,241.909C1462.12,244.275 1461.39,246.55 1459.93,248.733C1458.48,250.917 1456.38,252.827 1453.66,254.465L1380.51,296.499C1383.05,302.14 1387.56,306.508 1394.02,309.601C1400.48,312.694 1407.71,314.241 1415.72,314.241C1426.27,314.241 1435.28,310.329 1442.74,302.504C1445.65,299.593 1448.65,298.137 1451.75,298.137C1455.38,298.137 1458.43,299.32 1460.89,301.685C1463.35,304.051 1464.57,306.962 1464.57,310.42C1464.57,313.331 1463.48,316.061 1461.3,318.608C1456.2,324.249 1449.42,329.026 1440.96,332.938C1432.5,336.85 1424.09,338.807 1415.72,338.807ZM1435.1,238.634C1432.91,234.813 1429.82,231.947 1425.82,230.036C1421.81,228.126 1417.08,227.17 1411.62,227.17C1401.25,227.17 1392.56,230.719 1385.56,237.815C1378.55,244.912 1374.5,253.646 1373.41,264.018C1373.05,266.748 1372.86,270.023 1372.86,273.845L1435.1,238.634Z" style="fill:rgb(160,0,0);fill-rule:nonzero;stroke:rgb(118,0,0);stroke-opacity:0;stroke-width:0.84px;stroke-linecap:butt;stroke-miterlimit:2;"/>
            </g>
            <g transform="matrix(0.997596,-0.0692987,0.0692987,0.997596,-28.0572,105.715)">
                <path d="M1504.15,338.807C1500.69,338.807 1497.6,337.533 1494.87,334.985C1492.14,332.438 1490.78,329.526 1490.78,326.251L1490.78,215.706C1490.78,212.067 1492.1,208.974 1494.74,206.426C1497.37,203.878 1500.51,202.605 1504.15,202.605C1507.79,202.605 1510.93,203.878 1513.57,206.426C1516.21,208.974 1517.53,212.067 1517.53,215.706L1517.53,223.895C1526.44,209.337 1538.63,202.059 1554.1,202.059C1563.38,202.059 1570.07,204.606 1574.16,209.701C1578.26,214.796 1580.3,220.892 1580.3,227.989L1580.3,236.178C1580.3,239.817 1579.08,242.865 1576.62,245.321C1574.16,247.778 1571.12,249.006 1567.48,249.006C1563.11,249.006 1559.88,247.732 1557.79,245.185C1555.69,242.637 1554.65,239.544 1554.65,235.905L1554.65,232.356C1554.65,229.445 1552.65,227.989 1548.64,227.989C1545.37,227.989 1541.59,229.627 1537.32,232.902C1533.04,236.178 1529.54,239.635 1526.81,243.274C1522.99,248.005 1520.48,252.736 1519.3,257.468C1518.12,262.199 1517.53,267.84 1517.53,274.39L1517.25,326.251C1517.25,329.526 1515.89,332.438 1513.16,334.985C1510.43,337.533 1507.43,338.807 1504.15,338.807Z" style="fill:rgb(160,0,0);fill-rule:nonzero;stroke:rgb(118,0,0);stroke-opacity:0;stroke-width:0.84px;stroke-linecap:butt;stroke-miterlimit:2;"/>
            </g>
            <path d="M1679.93,341.536C1676.29,341.536 1673.34,340.535 1671.06,338.534C1668.79,336.532 1667.65,333.894 1667.65,330.618L1667.65,326.797C1660.19,334.803 1649.82,338.807 1636.53,338.807C1626.52,338.807 1617.52,336.35 1609.51,331.437C1601.5,326.524 1595.23,319.564 1590.68,310.556C1586.13,301.549 1583.85,291.313 1583.85,279.849C1583.85,267.112 1586.58,254.784 1592.04,242.865C1597.5,230.946 1605.19,221.256 1615.11,213.796C1625.02,206.335 1636.44,202.605 1649.36,202.605C1657.73,202.605 1665.28,203.742 1672.02,206.017C1678.75,208.291 1685.75,211.066 1693.03,214.342L1693.03,327.889C1693.03,331.528 1691.76,334.712 1689.21,337.442C1686.66,340.171 1683.57,341.536 1679.93,341.536ZM1638.44,313.422C1643.72,313.422 1648.86,312.33 1653.86,310.147C1658.87,307.963 1663.01,305.325 1666.28,302.231L1667.1,230.991C1661.83,228.808 1656.09,227.716 1649.91,227.716C1642.08,227.716 1635.17,230.127 1629.16,234.949C1623.16,239.771 1618.52,246.14 1615.24,254.056C1611.97,261.971 1610.33,270.387 1610.33,279.304C1610.33,290.404 1612.79,298.865 1617.7,304.688C1622.61,310.511 1629.53,313.422 1638.44,313.422Z" style="fill:rgb(160,0,0);fill-rule:nonzero;stroke:rgb(118,0,0);stroke-opacity:0;stroke-width:0.84px;stroke-linecap:butt;stroke-miterlimit:2;"/>
            <g transform="matrix(0.999002,0.0446724,-0.0446724,0.999002,1.49406,-75.5695)">
                <path d="M1744.35,387.119C1740.89,387.119 1737.84,385.799 1735.2,383.161C1732.57,380.522 1731.25,377.474 1731.25,374.017L1731.25,215.706C1731.25,211.885 1732.52,208.701 1735.07,206.153C1737.61,203.606 1740.8,202.332 1744.62,202.332C1747.71,202.332 1750.58,203.515 1753.22,205.88C1755.86,208.246 1757.18,211.339 1757.18,215.16L1757.18,218.163C1766.46,207.609 1780.1,202.332 1798.12,202.332C1805.58,202.332 1812.81,204.697 1819.82,209.428C1826.82,214.16 1832.6,221.211 1837.15,230.582C1841.7,239.953 1843.97,251.19 1843.97,264.291C1843.97,276.119 1842.15,287.492 1838.52,298.41C1834.88,309.328 1828.55,318.472 1819.55,325.841C1810.54,333.211 1798.48,336.896 1783.38,336.896C1774.64,336.896 1766,334.439 1757.45,329.526L1757.45,374.017C1757.45,377.474 1756.13,380.522 1753.49,383.161C1750.85,385.799 1747.81,387.119 1744.35,387.119ZM1785.02,311.785C1795.57,311.785 1803.9,307.827 1809.99,299.911C1816.09,291.996 1819.13,280.122 1819.13,264.291C1819.13,252.645 1816.91,243.502 1812.45,236.86C1807.99,230.218 1802.49,226.897 1795.93,226.897C1786.65,226.897 1778.78,228.717 1772.33,232.356C1765.87,235.996 1760.91,240.09 1757.45,244.639L1757.45,305.234C1768.55,309.601 1777.74,311.785 1785.02,311.785Z" style="fill:rgb(160,0,0);fill-rule:nonzero;stroke:rgb(118,0,0);stroke-opacity:0;stroke-width:0.84px;stroke-linecap:butt;stroke-miterlimit:2;"/>
            </g>
            <g transform="matrix(1,0,0,1,-14.3537,-9.41963)">
                <path d="M1886.55,339.08C1883.1,339.08 1880.05,337.76 1877.41,335.122C1874.77,332.483 1873.45,329.435 1873.45,325.978L1873.45,168.759C1873.45,165.12 1874.77,161.981 1877.41,159.342C1880.05,156.704 1883.28,155.384 1887.1,155.384C1890.74,155.384 1893.74,156.704 1896.11,159.342C1898.47,161.981 1899.66,165.12 1899.66,168.759L1899.66,227.443C1905.66,219.801 1912.48,213.659 1920.13,209.019C1927.77,204.379 1935.41,202.059 1943.06,202.059C1957.43,202.059 1967.53,209.292 1973.35,223.758C1979.17,238.225 1982.09,261.107 1982.09,292.405C1982.09,310.056 1981.81,321.429 1981.27,326.524C1981.09,329.981 1979.77,332.893 1977.31,335.258C1974.85,337.624 1971.9,338.807 1968.44,338.807C1964.62,338.807 1961.52,337.578 1959.16,335.122C1956.79,332.665 1955.61,329.617 1955.61,325.978C1955.61,322.339 1955.7,319.336 1955.88,316.971L1956.16,294.316C1956.16,267.931 1954.75,250.28 1951.92,241.364C1949.11,232.447 1945.6,227.989 1941.42,227.989C1936.14,227.989 1930.77,230.4 1925.31,235.222C1919.85,240.044 1915.17,245.412 1911.26,251.326C1907.34,257.24 1904.57,261.926 1902.93,265.383C1900.75,270.296 1899.66,276.756 1899.66,284.763L1899.66,325.432C1899.66,329.617 1898.38,332.938 1895.83,335.395C1893.29,337.851 1890.19,339.08 1886.55,339.08Z" style="fill:rgb(160,0,0);fill-rule:nonzero;stroke:rgb(118,0,0);stroke-opacity:0;stroke-width:0.84px;stroke-linecap:butt;stroke-miterlimit:2;"/>
            </g>
            <g transform="matrix(1,0,0,1,-16.1479,11.9793)">
                <path d="M2065.06,338.807C2054.69,338.807 2045.18,335.986 2036.54,330.345C2027.9,324.704 2021.12,317.016 2016.21,307.281C2011.29,297.546 2008.84,286.946 2008.84,275.482C2008.84,262.563 2011.75,250.507 2017.57,239.316C2023.39,228.126 2031.22,219.209 2041.04,212.567C2050.87,205.926 2061.42,202.605 2072.71,202.605C2083.08,202.605 2092.59,205.516 2101.23,211.339C2109.87,217.162 2116.7,224.896 2121.7,234.54C2126.7,244.184 2129.21,254.556 2129.21,265.656C2129.21,278.758 2126.3,290.904 2120.47,302.095C2114.65,313.286 2106.78,322.202 2096.86,328.844C2086.95,335.486 2076.35,338.807 2065.06,338.807ZM2065.06,314.241C2071.43,314.241 2077.53,312.058 2083.35,307.69C2089.17,303.323 2093.81,297.5 2097.27,290.222C2100.73,282.943 2102.46,275.209 2102.46,267.021C2102.46,260.106 2101.09,253.601 2098.36,247.505C2095.63,241.409 2091.9,236.496 2087.17,232.766C2082.44,229.035 2077.26,227.17 2071.61,227.17C2065.24,227.17 2059.29,229.399 2053.74,233.857C2048.19,238.316 2043.77,244.23 2040.5,251.599C2037.22,258.969 2035.59,266.839 2035.59,275.209C2035.59,283.398 2037,290.404 2039.82,296.226C2042.64,302.049 2046.28,306.508 2050.73,309.601C2055.19,312.694 2059.97,314.241 2065.06,314.241Z" style="fill:rgb(160,0,0);fill-rule:nonzero;stroke:rgb(118,0,0);stroke-opacity:0;stroke-width:0.84px;stroke-linecap:butt;stroke-miterlimit:2;"/>
            </g>
            <g transform="matrix(1,0,0,1,-16.1479,21.2283)">
                <path d="M2171.79,338.807C2168.33,338.807 2165.28,337.533 2162.64,334.985C2160,332.438 2158.68,329.526 2158.68,326.251L2158.68,215.433C2158.68,211.794 2160.05,208.701 2162.78,206.153C2165.51,203.606 2168.69,202.332 2172.33,202.332C2175.79,202.332 2178.75,203.606 2181.2,206.153C2183.66,208.701 2184.89,211.794 2184.89,215.433L2184.89,236.178C2189.98,225.26 2196.44,216.935 2204.27,211.203C2212.09,205.471 2220.64,202.605 2229.93,202.605C2240.12,202.605 2248.21,204.97 2254.22,209.701C2260.22,214.433 2264.59,222.212 2267.32,233.039C2270.05,243.866 2271.41,258.832 2271.41,277.939L2271.14,325.705C2271.14,329.162 2269.96,332.21 2267.59,334.849C2265.23,337.487 2262.22,338.807 2258.58,338.807C2255.13,338.807 2252.08,337.487 2249.44,334.849C2246.8,332.21 2245.48,329.253 2245.48,325.978L2245.48,280.668C2245.48,266.475 2244.85,255.557 2243.57,247.914C2242.3,240.272 2240.39,235.04 2237.84,232.22C2235.29,229.399 2231.84,227.989 2227.47,227.989C2222.01,227.989 2216.55,230.309 2211.09,234.949C2205.63,239.589 2200.54,246.186 2195.81,254.738C2191.62,262.199 2188.71,269.477 2187.07,276.574C2185.43,283.671 2184.62,292.223 2184.62,302.231L2184.62,325.159C2184.62,329.162 2183.48,332.438 2181.2,334.985C2178.93,337.533 2175.79,338.807 2171.79,338.807Z" style="fill:rgb(160,0,0);fill-rule:nonzero;stroke:rgb(118,0,0);stroke-opacity:0;stroke-width:0.84px;stroke-linecap:butt;stroke-miterlimit:2;"/>
            </g>
            <g transform="matrix(1,0,0,1,-21.082,7.9862)">
                <path d="M2365.85,338.807C2352.93,338.807 2341.33,336.032 2331.05,330.482C2320.77,324.932 2312.72,317.016 2306.9,306.735C2301.07,296.454 2298.16,284.308 2298.16,270.296C2298.16,258.832 2300.76,247.869 2305.94,237.406C2311.13,226.943 2318.41,218.527 2327.78,212.158C2337.15,205.789 2347.84,202.605 2359.85,202.605C2370.95,202.605 2380.46,204.834 2388.37,209.292C2396.29,213.75 2402.25,219.073 2406.25,225.26C2410.25,231.446 2412.26,236.996 2412.26,241.909C2412.26,244.275 2411.53,246.55 2410.07,248.733C2408.62,250.917 2406.52,252.827 2403.79,254.465L2330.64,296.499C2333.19,302.14 2337.69,306.508 2344.15,309.601C2350.61,312.694 2357.85,314.241 2365.85,314.241C2376.41,314.241 2385.41,310.329 2392.88,302.504C2395.79,299.593 2398.79,298.137 2401.88,298.137C2405.52,298.137 2408.57,299.32 2411.03,301.685C2413.48,304.051 2414.71,306.962 2414.71,310.42C2414.71,313.331 2413.62,316.061 2411.44,318.608C2406.34,324.249 2399.56,329.026 2391.1,332.938C2382.64,336.85 2374.22,338.807 2365.85,338.807ZM2385.23,238.634C2383.05,234.813 2379.96,231.947 2375.95,230.036C2371.95,228.126 2367.22,227.17 2361.76,227.17C2351.39,227.17 2342.7,230.719 2335.69,237.815C2328.69,244.912 2324.64,253.646 2323.55,264.018C2323.18,266.748 2323,270.023 2323,273.845L2385.23,238.634Z" style="fill:rgb(160,0,0);fill-rule:nonzero;stroke:rgb(118,0,0);stroke-opacity:0;stroke-width:0.84px;stroke-linecap:butt;stroke-miterlimit:2;"/>
            </g>
        </g>
    </g>
</svg>
